<svg xmlns="http://www.w3.org/2000/svg" width="332" height="490" viewBox="0 0 332 490">
  <defs>
    <marker id="arrow" viewBox="0 0 10 10" refX="9" refY="5" markerWidth="7" markerHeight="7" orient="auto">
      <path d="M0,0 L10,5 L0,10 z" fill="#333"/>
    </marker>
  </defs>
  <line x1="192" y1="110" x2="192" y2="139" stroke="#333" stroke-width="1.2" marker-end="url(#arrow)"/>
  <line x1="192" y1="171" x2="114" y2="200" stroke="#333" stroke-width="1.2" marker-end="url(#arrow)"/>
  <line x1="192" y1="171" x2="270" y2="200" stroke="#333" stroke-width="1.2" marker-end="url(#arrow)"/>
  <line x1="114" y1="290" x2="114" y2="319" stroke="#333" stroke-width="1.2" marker-end="url(#arrow)"/>
  <line x1="114" y1="351" x2="62" y2="380" stroke="#333" stroke-width="1.2" marker-end="url(#arrow)"/>
  <line x1="114" y1="351" x2="166" y2="380" stroke="#333" stroke-width="1.2" marker-end="url(#arrow)"/>
  <g><rect x="150" y="20" width="84" height="30" fill="white" stroke="#333" stroke-width="1.5"/><text x="192" y="35" text-anchor="middle" dominant-baseline="central" font-family="monospace" font-size="13">a * b + c</text><rect x="150" y="50" width="84" height="30" fill="white" stroke="#333" stroke-width="1.5"/><text x="192" y="65" text-anchor="middle" dominant-baseline="central" font-family="monospace" font-size="13">data 4</text><rect x="150" y="80" width="84" height="30" fill="white" stroke="#333" stroke-width="1.5"/><text x="192" y="95" text-anchor="middle" dominant-baseline="central" font-family="monospace" font-size="13">grad 0</text></g>
  <g><circle cx="192" cy="155" r="16" fill="white" stroke="#333" stroke-width="1.5"/><text x="192" y="155" text-anchor="middle" dominant-baseline="central" font-family="monospace" font-size="14">+</text></g>
  <g><rect x="72" y="200" width="84" height="30" fill="white" stroke="#333" stroke-width="1.5"/><text x="114" y="215" text-anchor="middle" dominant-baseline="central" font-family="monospace" font-size="13">a * b</text><rect x="72" y="230" width="84" height="30" fill="white" stroke="#333" stroke-width="1.5"/><text x="114" y="245" text-anchor="middle" dominant-baseline="central" font-family="monospace" font-size="13">data -6</text><rect x="72" y="260" width="84" height="30" fill="white" stroke="#333" stroke-width="1.5"/><text x="114" y="275" text-anchor="middle" dominant-baseline="central" font-family="monospace" font-size="13">grad 0</text></g>
  <g><circle cx="114" cy="335" r="16" fill="white" stroke="#333" stroke-width="1.5"/><text x="114" y="335" text-anchor="middle" dominant-baseline="central" font-family="monospace" font-size="14">*</text></g>
  <g><rect x="20" y="380" width="84" height="30" fill="white" stroke="#333" stroke-width="1.5"/><text x="62" y="395" text-anchor="middle" dominant-baseline="central" font-family="monospace" font-size="13">a</text><rect x="20" y="410" width="84" height="30" fill="white" stroke="#333" stroke-width="1.5"/><text x="62" y="425" text-anchor="middle" dominant-baseline="central" font-family="monospace" font-size="13">data 2</text><rect x="20" y="440" width="84" height="30" fill="white" stroke="#333" stroke-width="1.5"/><text x="62" y="455" text-anchor="middle" dominant-baseline="central" font-family="monospace" font-size="13">grad 0</text></g>
  <g><rect x="124" y="380" width="84" height="30" fill="white" stroke="#333" stroke-width="1.5"/><text x="166" y="395" text-anchor="middle" dominant-baseline="central" font-family="monospace" font-size="13">b</text><rect x="124" y="410" width="84" height="30" fill="white" stroke="#333" stroke-width="1.5"/><text x="166" y="425" text-anchor="middle" dominant-baseline="central" font-family="monospace" font-size="13">data -3</text><rect x="124" y="440" width="84" height="30" fill="white" stroke="#333" stroke-width="1.5"/><text x="166" y="455" text-anchor="middle" dominant-baseline="central" font-family="monospace" font-size="13">grad 0</text></g>
  <g><rect x="228" y="200" width="84" height="30" fill="white" stroke="#333" stroke-width="1.5"/><text x="270" y="215" text-anchor="middle" dominant-baseline="central" font-family="monospace" font-size="13">c</text><rect x="228" y="230" width="84" height="30" fill="white" stroke="#333" stroke-width="1.5"/><text x="270" y="245" text-anchor="middle" dominant-baseline="central" font-family="monospace" font-size="13">data 10</text><rect x="228" y="260" width="84" height="30" fill="white" stroke="#333" stroke-width="1.5"/><text x="270" y="275" text-anchor="middle" dominant-baseline="central" font-family="monospace" font-size="13">grad 0</text></g>
</svg>